<svg width="253" height="283" viewBox="0 0 253 283" fill="none" xmlns="http://www.w3.org/2000/svg">
<path d="M246.445 169.914C245.531 173.256 244.506 176.594 243.369 179.925L242.423 179.602C241.863 181.241 241.276 182.878 240.661 184.513C240.046 186.147 239.409 187.765 238.749 189.367L239.674 189.748C238.334 193.002 236.903 196.188 235.388 199.303L234.489 198.866C232.957 202.013 231.339 205.088 229.639 208.086L230.508 208.579C228.773 211.638 226.954 214.618 225.054 217.517L224.218 216.969C222.301 219.895 220.302 222.737 218.228 225.492L219.027 226.093C216.913 228.902 214.721 231.621 212.456 234.246L211.699 233.593C209.416 236.241 207.06 238.792 204.636 241.245L205.348 241.948C202.877 244.449 200.336 246.847 197.733 249.14L197.072 248.39C194.452 250.698 191.767 252.898 189.025 254.986L189.631 255.782C186.834 257.912 183.978 259.927 181.07 261.823L180.524 260.985C177.602 262.89 174.628 264.673 171.609 266.33L172.09 267.207C169.009 268.898 165.88 270.46 162.713 271.888L162.302 270.976C159.125 272.408 155.909 273.704 152.661 274.86L152.996 275.802C149.692 276.978 146.354 278.011 142.992 278.895L142.738 277.928C139.374 278.812 135.987 279.547 132.583 280.127L132.752 281.113C129.301 281.701 125.833 282.132 122.357 282.402L122.28 281.405C118.826 281.672 115.365 281.778 111.905 281.719L111.888 282.719C108.401 282.659 104.914 282.432 101.437 282.033L101.55 281.04C98.1269 280.647 94.7124 280.087 91.315 279.355L91.1042 280.332C87.7117 279.601 84.336 278.699 80.9853 277.622L81.2912 276.67C79.6497 276.143 78.0143 275.573 76.3857 274.961C74.7572 274.348 73.1518 273.698 71.5698 273.013L71.1722 273.931C67.9428 272.532 64.8098 270.985 61.7764 269.299L62.2623 268.425C59.2245 266.736 56.2875 264.907 53.4544 262.945L52.8852 263.767C50.0072 261.775 47.2356 259.647 44.5737 257.394L45.2198 256.631C42.5784 254.395 40.0457 252.033 37.6251 249.556L36.9098 250.255C34.4734 247.761 32.1498 245.151 29.9425 242.434L30.7187 241.804C28.5417 239.124 26.4785 236.339 24.5322 233.457L23.7035 234.016C21.7578 231.135 19.9284 228.159 18.2184 225.096L19.0916 224.609C17.4112 221.599 15.8469 218.504 14.4018 215.333L13.4918 215.748C12.0509 212.586 10.7277 209.35 9.52536 206.047L10.465 205.705C9.28684 202.468 8.22534 199.167 7.28347 195.809L6.32062 196.079C5.3832 192.737 4.56355 189.339 3.86448 185.893L4.84451 185.694C4.15927 182.317 3.59061 178.893 3.14125 175.429L2.14957 175.558C1.70322 172.118 1.37383 168.639 1.16397 165.13L2.16219 165.07C1.95638 161.629 1.86628 158.156 1.89439 154.661L0.894419 154.653C0.922303 151.186 1.06571 147.696 1.32703 144.19L2.32427 144.265C2.58057 140.826 2.95103 137.372 3.43793 133.907L2.44766 133.768C2.92997 130.337 3.52581 126.896 4.23736 123.452L5.21668 123.654C5.91405 120.279 6.72329 116.9 7.64648 113.524L6.68189 113.26C7.59552 109.919 8.62006 106.58 9.75747 103.249L10.7038 103.572C11.2635 101.933 11.8507 100.296 12.4656 98.6615C13.0806 97.027 13.7181 95.4088 14.3775 93.8073L13.4528 93.4266C14.793 90.172 16.2233 86.9858 17.7386 83.8709L18.6379 84.3083C20.1691 81.1608 21.7876 78.0865 23.488 75.0884L22.6182 74.5951C24.3532 71.5361 26.173 68.5559 28.0722 65.6574L28.9086 66.2054C30.8258 63.2794 32.8243 60.4373 34.8981 57.6825L34.0991 57.081C36.2135 54.2723 38.4059 51.5535 40.6701 48.9279L41.4274 49.581C43.7103 46.9337 46.0667 44.382 48.4901 41.9293L47.7788 41.2265C50.2498 38.7257 52.7901 36.3271 55.3933 34.0342L56.0543 34.7847C58.6751 32.4764 61.3597 30.2762 64.1012 28.1879L63.4953 27.3924C66.2922 25.262 69.1483 23.247 72.0563 21.3514L72.6024 22.1891C75.5242 20.2845 78.4985 18.5016 81.5179 16.8442L81.0367 15.9676C84.118 14.2762 87.2463 12.7145 90.4139 11.2867L90.8248 12.1984C94.0016 10.7664 97.2178 9.4703 100.465 8.31439L100.13 7.37229C103.435 6.19601 106.773 5.16356 110.135 4.27945L110.389 5.24658C113.752 4.36219 117.14 3.62761 120.543 3.04734L120.375 2.06157C123.826 1.47319 127.294 1.042 130.77 0.772685L130.847 1.7697C134.3 1.50214 137.761 1.39583 141.221 1.45538L141.239 0.455529C144.726 0.515539 148.212 0.742453 151.69 1.14097L151.576 2.13447C155 2.52677 158.414 3.08691 161.812 3.81945L162.022 2.84191C165.415 3.5734 168.791 4.47521 172.141 5.55179L171.835 6.50386C173.477 7.03127 175.112 7.60104 176.741 8.21371C178.369 8.82639 179.975 9.47591 181.557 10.1612L181.954 9.24364C185.184 10.6426 188.317 12.1895 191.35 13.8756L190.864 14.7496C193.902 16.4381 196.839 18.2675 199.672 20.2291L200.241 19.4069C203.119 21.3995 205.891 23.5271 208.553 25.7804L207.907 26.5436C210.548 28.7796 213.081 31.1409 215.501 33.6183L216.217 32.9195C218.653 35.4131 220.977 38.0231 223.184 40.7402L222.408 41.3707C224.585 44.0504 226.648 46.8357 228.594 49.7176L229.423 49.1579C231.369 52.039 233.198 55.0153 234.908 58.0783L234.035 58.5657C235.715 61.5756 237.28 64.6702 238.725 67.8411L239.635 67.4264C241.076 70.588 242.399 73.8244 243.601 77.1273L242.662 77.4694C243.84 80.706 244.901 84.0073 245.843 87.3655L246.806 87.0954C247.743 90.4377 248.563 93.8356 249.262 97.2813L248.282 97.4801C248.967 100.858 249.536 104.282 249.985 107.745L250.977 107.616C251.423 111.057 251.753 114.535 251.963 118.044L250.964 118.104C251.17 121.546 251.26 125.018 251.232 128.513L252.232 128.521C252.204 131.988 252.061 135.478 251.8 138.984L250.802 138.91C250.546 142.348 250.176 145.803 249.689 149.267L250.679 149.406C250.197 152.838 249.601 156.278 248.889 159.722L247.91 159.52C247.212 162.895 246.403 166.274 245.48 169.65L246.445 169.914Z" stroke="#18314F" stroke-width="2" stroke-dasharray="10 10"/>
</svg>
