<svg width="292" height="289" viewBox="0 0 292 289" fill="none" xmlns="http://www.w3.org/2000/svg">
<path d="M287.493 181.347C286.643 184.66 285.667 187.963 284.563 191.252L283.615 190.934C283.072 192.552 282.498 194.167 281.892 195.777C281.286 197.388 280.654 198.98 279.996 200.555L280.918 200.941C279.581 204.142 278.137 207.269 276.592 210.321L275.7 209.869C274.145 212.942 272.487 215.937 270.733 218.852L271.589 219.368C269.805 222.333 267.92 225.216 265.942 228.015L265.125 227.437C263.142 230.244 261.063 232.964 258.896 235.596L259.668 236.232C257.471 238.899 255.184 241.476 252.812 243.961L252.089 243.27C249.721 245.751 247.268 248.138 244.736 250.429L245.407 251.171C242.848 253.486 240.21 255.704 237.499 257.822L236.884 257.034C234.184 259.142 231.412 261.15 228.573 263.055L229.13 263.885C226.268 265.806 223.339 267.622 220.348 269.332L219.852 268.464C216.882 270.162 213.851 271.754 210.767 273.237L211.2 274.138C208.096 275.63 204.939 277.013 201.733 278.283L201.365 277.353C198.187 278.612 194.962 279.76 191.695 280.793L191.997 281.747C188.717 282.785 185.396 283.708 182.04 284.515L181.806 283.542C178.486 284.34 175.131 285.023 171.749 285.587L171.914 286.574C168.524 287.139 165.106 287.587 161.667 287.914L161.572 286.918C158.176 287.241 154.759 287.445 151.326 287.528L151.351 288.528C147.92 288.611 144.473 288.573 141.018 288.413L141.065 287.414C137.661 287.256 134.248 286.978 130.832 286.578L130.716 287.571C127.313 287.172 123.908 286.652 120.505 286.008L120.691 285.026C117.347 284.393 114.006 283.641 110.672 282.766L110.419 283.734C107.111 282.866 103.812 281.878 100.525 280.769L100.845 279.821C99.2272 279.275 97.6124 278.699 96.0014 278.093C94.3903 277.487 92.7963 276.855 91.2195 276.2L90.8355 277.123C87.6327 275.791 84.5004 274.359 81.4412 272.832L81.8878 271.937C78.8045 270.398 75.7959 268.761 72.8646 267.032L72.3566 267.894C69.3736 266.135 66.4699 264.281 63.6482 262.339L64.2152 261.515C61.3823 259.565 58.6326 257.524 55.9688 255.4L55.3452 256.181C52.6413 254.024 50.0252 251.781 47.4997 249.457L48.1768 248.721C45.6503 246.396 43.2151 243.99 40.874 241.509L40.1466 242.195C37.7756 239.683 35.5004 237.093 33.3239 234.434L34.0978 233.8C31.9261 231.146 29.8533 228.422 27.8823 225.633L27.0657 226.211C25.0737 223.392 23.185 220.508 21.4024 217.566L22.2577 217.048C20.4828 214.118 18.8139 211.129 17.2539 208.087L16.3641 208.544C14.7905 205.476 13.327 202.354 11.9766 199.187L12.8965 198.795C11.5543 195.646 10.3246 192.451 9.21028 189.217L8.2648 189.542C7.14295 186.286 6.13728 182.989 5.25075 179.658L6.2171 179.4C5.33778 176.097 4.57651 172.759 3.93624 169.395L2.95387 169.582C2.31073 166.202 1.78881 162.795 1.39103 159.367L2.38436 159.252C1.99078 155.86 1.71961 152.448 1.57376 149.022L0.574666 149.064C0.428601 145.633 0.407301 142.187 0.51363 138.733L1.51316 138.764C1.61807 135.356 1.84811 131.94 2.20607 128.522L1.21151 128.418C1.56849 125.01 2.05179 121.599 2.66413 118.193L3.64835 118.37C4.25032 115.021 4.9779 111.676 5.83373 108.34L4.86511 108.092C5.71508 104.779 6.69065 101.475 7.79434 98.1866L8.74238 98.5048C9.28544 96.8866 9.85975 95.2719 10.4656 93.6615C11.0715 92.051 11.7039 90.4582 12.3621 88.8833L11.4395 88.4977C12.7773 85.297 14.2211 82.1697 15.7655 79.1181L16.6578 79.5697C18.2128 76.4971 19.8705 73.502 21.6252 70.5868L20.7684 70.0711C22.5533 67.1058 24.4378 64.2225 26.416 61.424L27.2325 62.0012C29.2162 59.1951 31.2947 56.4747 33.462 53.8428L32.69 53.2071C34.8867 50.5396 37.174 47.9623 39.5456 45.4781L40.2689 46.1686C42.6372 43.6879 45.0903 41.3006 47.6219 39.0094L46.9509 38.2679C49.5094 35.9524 52.1475 33.7344 54.8588 31.6168L55.4743 32.4049C58.1735 30.2968 60.9458 28.2888 63.7848 26.3838L63.2276 25.5534C66.0898 23.6329 69.0193 21.8163 72.0096 20.1067L72.5059 20.9748C75.4761 19.2767 78.5066 17.6847 81.5912 16.2017L81.1579 15.3005C84.2615 13.8084 87.4193 12.426 90.6249 11.156L90.9933 12.0857C94.1711 10.8267 97.3963 9.67902 100.662 8.64547L100.361 7.69207C103.641 6.65408 106.962 5.73043 110.318 4.92392L110.551 5.89623C113.872 5.09822 117.226 4.4157 120.609 3.85142L120.444 2.86505C123.834 2.29952 127.252 1.85196 130.691 1.52513L130.786 2.52064C134.182 2.19792 137.599 1.99372 141.031 1.91071L141.007 0.911001C144.438 0.828025 147.884 0.865328 151.339 1.02556L151.293 2.02449C154.697 2.18235 158.11 2.46034 161.526 2.86103L161.642 1.86784C165.045 2.26696 168.45 2.78699 171.853 3.43042L171.667 4.41301C175.011 5.0453 178.352 5.79759 181.685 6.6723L181.939 5.70505C185.247 6.57293 188.546 7.56049 191.832 8.67006L191.513 9.61752C193.131 10.1638 194.745 10.7398 196.356 11.3459C197.967 11.952 199.562 12.5832 201.138 13.2389L201.522 12.3156C204.725 13.6474 207.857 15.0796 210.917 16.6069L210.47 17.5016C213.553 19.041 216.562 20.6776 219.493 22.4062L220.001 21.5448C222.984 23.3038 225.888 25.1574 228.71 27.0999L228.143 27.9236C230.976 29.8738 233.725 31.9142 236.389 34.0391L237.013 33.2574C239.717 35.4143 242.333 37.6577 244.858 39.9816L244.181 40.7175C246.708 43.0423 249.143 45.4483 251.484 47.9295L252.211 47.2432C254.582 49.756 256.857 52.3453 259.034 55.0051L258.26 55.6384C260.432 58.2922 262.505 61.0166 264.476 63.8053L265.292 63.2281C267.284 66.0465 269.173 68.9302 270.955 71.8729L270.1 72.391C271.875 75.3211 273.544 78.31 275.104 81.3515L275.994 80.8951C277.567 83.9631 279.031 87.0842 280.381 90.252L279.461 90.6441C280.804 93.7925 282.033 96.9873 283.148 100.222L284.093 99.8963C285.215 103.153 286.221 106.45 287.107 109.781L286.141 110.038C287.02 113.342 287.781 116.679 288.422 120.044L289.404 119.857C290.047 123.237 290.569 126.643 290.967 130.071L289.973 130.186C290.367 133.578 290.638 136.99 290.784 140.417L291.783 140.375C291.929 143.806 291.951 147.252 291.844 150.706L290.845 150.675C290.74 154.083 290.51 157.499 290.152 160.916L291.146 161.02C290.789 164.429 290.306 167.839 289.694 171.246L288.709 171.069C288.108 174.418 287.38 177.763 286.524 181.098L287.493 181.347Z" stroke="#18314F" stroke-width="2" stroke-dasharray="10 10"/>
</svg>
