<svg width="603" height="338" viewBox="0 0 603 338" fill="none" xmlns="http://www.w3.org/2000/svg">
<g opacity="0.5">
<path d="M1 53.5L24.5 47L39 53.5L68.5 39L95.5 47L119 65.5L141 27.5H182.5L204 43.5L212.5 27.5L242 15.5L278 27.5L310 57L390 53.5L408 27.5L454.5 22L496.5 2L540 39L584.5 27.5" stroke="#70684E" stroke-width="2"/>
<circle cx="119" cy="64" r="4.5" fill="#70684E" stroke="white"/>
<path d="M1 102C4.6 104.8 19.1667 121.5 26 129.5H41.5L49.5 123V129.5L69 118.5L75.5 108L98.5 129.5L123 146.5L128.5 108L154 102L167 118.5L195.5 113.5L203.5 102L225 118.5L246.5 94.5L269.5 108L308 94.5L316.5 123L363 102V69L388 85.5L402.5 102L441 108L454 85.5L472 102L520 85.5L530 102L566.5 94.5L586 85.5" stroke="#5E3A5C" stroke-width="2"/>
<circle cx="75" cy="109" r="4.5" fill="#5D3A5C" stroke="white"/>
<path d="M1 169L14.5 200L30.5 188.5L41 200L48.5 173.5L55 200H94.5L109.5 159L125 200L150.5 188.5L171 200L187.5 169L218 181L228.5 164L274 159L321 146.5L327 169L367 173.5L394.5 164L412 146.5L449 151L473 173.5L510.5 164L519 151L540 164L588.5 151L602 164" stroke="#4A7E89" stroke-width="2"/>
<circle cx="110.5" cy="159.5" r="4.5" fill="#4A7E89" stroke="white"/>
<path d="M1 238C4.6 240.8 19.1667 257.5 26 265.5H41.5L49.5 259V265.5L69 254.5L75.5 244L98.5 265.5L123 282.5L128.5 244L154 238L167 254.5L195.5 249.5L203.5 238L225 254.5L246.5 230.5L269.5 244L308 230.5L316.5 259L363 238V205L388 221.5L402.5 238L441 244L454 221.5L472 238L520 221.5L530 238L566.5 230.5L586 221.5" stroke="#602B2B" stroke-width="2"/>
<circle cx="363" cy="205" r="4.5" fill="#602B2B" stroke="white"/>
<path d="M1 305L14.5 336L30.5 324.5L41 336L48.5 309.5L55 336H94.5L109.5 295L125 336L150.5 324.5L171 336L187.5 305L218 317L228.5 300L274 295L321 282.5L327 305L367 309.5L394.5 300L412 282.5L449 287L473 309.5L510.5 300L519 287L540 300L588.5 287L602 300" stroke="#727272" stroke-width="2"/>
<circle cx="109" cy="296.5" r="4.5" fill="#727272" stroke="white"/>
</g>
</svg>
