<svg width="311" height="40" viewBox="0 0 311 40" fill="none" xmlns="http://www.w3.org/2000/svg">
<g clip-path="url(#clip0_33_1548)">
<path d="M34.2977 0.124933C32.7349 0.515307 32.3208 2.81287 33.8366 3.57023C34.8193 4.06121 36.294 3.86256 37.3721 4.07753C39.4742 4.49667 41.4123 5.24274 43.2134 6.40256C51.6827 11.8566 53.0393 23.3347 46.5611 30.8032C41.8551 36.2282 33.6324 37.7363 27.2271 34.5656C25.4322 33.6771 23.8359 32.3948 22.4662 30.9555C21.5835 30.0279 20.7301 28.7798 19.2338 29.3786C16.1339 30.6191 20.3878 34.3672 21.5396 35.3097C25.4111 38.4772 30.7627 40.4216 35.8353 39.9218C48.2356 38.6998 56.5872 27.3143 53.9138 15.2803C52.3778 8.3645 46.6043 2.49756 39.678 0.767493C38.1179 0.377792 35.898 -0.27486 34.2977 0.124933ZM1.09481 0.441979C-0.579322 1.04189 -0.186149 3.5436 1.40226 3.95495C3.27093 4.43889 5.77258 4.01837 7.7047 4.01837H20.9247C22.6089 4.01837 26.1244 4.67552 27.5219 3.63791C28.6814 2.77697 28.2562 0.583467 26.766 0.378556C24.8946 0.121239 22.8154 0.365874 20.9247 0.365874H3.55433C2.81298 0.365874 1.79897 0.189651 1.09481 0.441979ZM32.1455 8.43172C32.1455 9.37225 32.5114 11.2497 32.0346 12.0715C31.6269 12.774 30.3061 13.2037 29.686 13.7708C28.0208 15.2939 27.0728 17.769 27.0728 19.9978C27.0728 22.265 28.0228 24.6674 29.686 26.2331C30.3123 26.8227 31.5921 27.2481 32.0346 27.9495C32.5195 28.7188 32.1455 30.6627 32.1455 31.5639H33.8365L33.9902 28.368L36.4496 28.6724V31.5639H38.1406V28.368C39.9537 28.2774 41.5179 27.1549 42.7521 25.933V25.7808C42.2994 25.3327 41.5706 24.2672 40.9074 24.1744C40.2671 24.0849 39.346 25.1746 38.7554 25.4384C37.4448 26.0242 35.8172 26.082 34.4513 25.6752C28.9438 24.0343 28.945 15.9734 34.4513 14.3206C35.848 13.9013 37.4175 13.9971 38.7554 14.5828C39.3441 14.8405 40.2716 15.9103 40.9074 15.8215C41.5706 15.7286 42.2994 14.6632 42.7521 14.215V14.0628C41.4923 12.8209 39.947 11.8156 38.1406 11.6279V8.43195H36.4496C36.4496 9.10507 36.7778 10.9635 36.1251 11.3658C35.6326 11.6693 34.5783 11.5178 33.9901 11.6279L33.8364 8.43198L32.1455 8.43172ZM70.7289 9.25209C68.5716 9.60309 66.5271 10.0389 64.7339 11.3869C59.7662 15.1212 59.0751 23.2224 63.6706 27.5741C67.3099 31.0195 73.2722 31.5796 77.6459 29.2438C78.2476 28.9226 80.2373 27.8399 79.9774 26.999C79.835 26.5388 79.2155 26.224 78.8757 25.9211C78.5592 25.6388 78.1185 24.97 77.6459 24.97C77.1021 24.97 76.4059 25.8813 75.955 26.1706C74.9074 26.8428 73.6526 27.1693 72.4195 27.2909C66.94 27.8308 63.279 22.0738 64.9898 17.2592C66.3201 13.5157 70.7373 11.7791 74.418 12.9515C75.2386 13.2129 77.3586 15.1032 77.9536 14.7693C78.401 14.5181 80.0031 13.2225 80.0031 12.6937C80.0031 11.894 78.4067 11.032 77.7999 10.6899C75.7803 9.55137 73.056 8.87345 70.7289 9.25209ZM92.0953 9.25254C89.7787 9.62949 87.6634 10.1915 85.7929 11.6875C80.8178 15.6667 80.7836 23.7188 85.4854 27.8998C88.1717 30.2883 92.0008 30.9835 95.4774 30.4657C97.0506 30.2314 98.5971 29.6768 99.9352 28.8212C109.458 22.7326 103.184 7.44788 92.0953 9.25254ZM275.631 9.25308C273.408 9.61479 271.288 10.0948 269.482 11.5359C264.182 15.7625 264.182 24.0831 269.482 28.3099C272.114 30.4091 275.757 30.9509 279.013 30.4658C280.521 30.2412 282.038 29.697 283.317 28.8762C292.778 22.8056 286.861 7.42595 275.631 9.25308ZM108.844 9.49754V30.3473H112.687V9.49754H108.844ZM118.375 9.49754V30.3473H122.218V16.3459L130.459 26.2383L133.807 30.2374L137.129 30.3473V9.49751H133.286V23.4989L130.664 20.4552L124.891 13.4546L121.603 9.60769L118.375 9.49754ZM142.816 9.49778V30.3475H146.659V9.49778H142.816ZM152.347 9.49778V30.3475H156.19V16.3461L164.277 26.0857L167.753 30.2371L170.947 30.347V9.49721H167.104V23.4986L158.966 13.6062L155.571 9.60713L152.347 9.49778ZM174.021 9.49722V12.6931H180.939V30.347H184.781V17.4115C184.781 16.4679 184.299 13.5777 184.986 12.8966C185.367 12.5196 186.288 12.6937 186.78 12.6937H191.852V9.49783L174.021 9.49722ZM194.773 9.49783V30.3476H210.605V27.1517H201.844L198.82 26.9488L198.615 25.4777V21.3687H208.761V18.1728H198.615V14.3681L198.82 12.897L201.844 12.6941H210.144V9.49824L194.773 9.49783ZM214.91 9.49824V30.348H218.753V16.3466L221.734 19.8469L227.237 26.5431L230.436 30.2379L233.664 30.3478V9.49803H229.821V23.4994L227.198 20.4557L221.068 12.9986L218.138 9.60821L214.91 9.49824ZM236.584 9.49831V12.6942H243.502V30.3481H247.498V12.6942H254.416V9.49831H236.584ZM257.336 9.49831V30.3481H261.333V9.49831H257.336ZM292.23 9.49831V30.3481H296.073V16.3467L299.207 19.9991L304.71 26.6953L307.756 30.2379L310.984 30.3478V9.498H307.141V23.4994L298.542 13.1505L295.552 9.60791L292.23 9.49831ZM5.69804 10.4872C3.98606 11.0575 4.40662 13.6008 6.00546 14.0001C7.26274 14.3142 8.86161 14.0636 10.1558 14.0636H18.6103C19.9288 14.0636 22.0466 14.46 23.2175 13.7719C24.4943 13.0216 24.2696 10.7611 22.7607 10.4491C21.5701 10.203 20.1339 10.4111 18.9178 10.4111H10.9245C9.38752 10.4111 7.15548 10.0018 5.69804 10.4872ZM92.5483 12.5755C99.6968 11.5925 103.74 21.3743 98.0821 25.7186C96.8929 26.6315 95.4236 27.1443 93.9317 27.2913C87.5155 27.9235 83.524 20.2557 87.386 15.2815C88.6449 13.6595 90.5531 12.8499 92.5483 12.5755ZM276.083 12.5759C282.964 11.6299 286.799 20.414 282.22 25.169C280.961 26.4761 279.09 27.1161 277.313 27.2913C271.181 27.8955 267.4 20.8793 270.456 15.8899C271.69 13.8734 273.81 12.8885 276.083 12.5759ZM10.7663 19.9186C9.2826 20.3651 9.07724 22.5996 10.4588 23.3048C11.0907 23.6273 11.9233 23.4993 12.6109 23.4993C14.3679 23.4993 17.1271 24.017 18.7596 23.3682C20.2297 22.784 20.3329 20.4867 18.7596 19.9229C18.0955 19.6849 17.1523 19.8468 16.4538 19.8468C14.7498 19.8468 12.3967 19.428 10.7663 19.9186Z" fill="#FBC315"/>
</g>
<defs>
<clipPath id="clip0_33_1548">
<rect width="311" height="40" fill="white"/>
</clipPath>
</defs>
</svg>
