<svg width="285" height="34" viewBox="0 0 285 34" fill="none" xmlns="http://www.w3.org/2000/svg">
<path d="M31.423 0.105135C29.9907 0.433327 29.6111 2.36491 31.0004 3.00163C31.901 3.4144 33.2526 3.2474 34.2406 3.42812C36.1671 3.78049 37.9433 4.40773 39.594 5.3828C47.3559 9.96808 48.5992 19.6178 42.6621 25.8967C38.3492 30.4575 30.8133 31.7254 24.9429 29.0597C23.2979 28.3128 21.835 27.2347 20.5796 26.0247C19.7707 25.2448 18.9886 24.1956 17.6172 24.699C14.7763 25.7419 18.6748 28.893 19.7304 29.6853C23.2786 32.3483 28.1832 33.9829 32.8322 33.5627C44.1968 32.5354 51.8509 22.9635 49.4007 12.8464C47.993 7.03222 42.7018 2.09982 36.3539 0.645341C34.9241 0.317716 32.8896 -0.230975 31.423 0.105135ZM0.993189 0.371679C-0.541118 0.876033 -0.180783 2.97924 1.27496 3.32507C2.98756 3.73192 5.28027 3.37838 7.05102 3.37838H19.1669C20.7104 3.37838 23.9323 3.93086 25.213 3.05853C26.2757 2.33473 25.886 0.490629 24.5203 0.318358C22.8053 0.102029 20.8997 0.307697 19.1669 0.307697H3.24729C2.56785 0.307697 1.63854 0.159544 0.993189 0.371679ZM29.4506 7.08874C29.4506 7.87944 29.7859 9.45784 29.3488 10.1487C28.9752 10.7393 27.7648 11.1006 27.1964 11.5774C25.6703 12.8579 24.8015 14.9387 24.8015 16.8125C24.8015 18.7185 25.6721 20.7382 27.1964 22.0546C27.7704 22.5502 28.9433 22.9078 29.3488 23.4975C29.7933 24.1442 29.4506 25.7786 29.4506 26.5362H31.0003L31.1411 23.8494L33.3952 24.1053V26.5362H34.9449V23.8493C36.6065 23.7732 38.0401 22.8295 39.1712 21.8023V21.6743C38.7563 21.2975 38.0884 20.4018 37.4807 20.3237C36.8938 20.2485 36.0496 21.1646 35.5083 21.3864C34.3072 21.8789 32.8156 21.9275 31.5637 21.5855C26.5162 20.206 26.5173 13.4291 31.5637 12.0396C32.8438 11.6871 34.2822 11.7676 35.5083 12.26C36.0479 12.4766 36.898 13.3761 37.4807 13.3014C38.0884 13.2233 38.7563 12.3276 39.1712 11.9508V11.8228C38.0167 10.7788 36.6005 9.93359 34.9449 9.77575V7.08893H33.3952C33.3952 7.65482 33.6959 9.21723 33.0978 9.55543C32.6464 9.81058 31.6801 9.68323 31.1411 9.77577L31.0002 7.08895L29.4506 7.08874ZM64.8114 7.77842C62.8343 8.07351 60.9606 8.43993 59.3171 9.57322C54.7643 12.7126 54.1309 19.5234 58.3427 23.1819C61.678 26.0785 67.1423 26.5494 71.1507 24.5857C71.7021 24.3156 73.5257 23.4054 73.2875 22.6985C73.157 22.3116 72.5892 22.0469 72.2778 21.7922C71.9877 21.5549 71.5838 20.9926 71.1507 20.9926C70.6523 20.9926 70.0143 21.7588 69.601 22.002C68.6409 22.5671 67.4909 22.8416 66.3608 22.9438C61.339 23.3978 57.9837 18.5578 59.5517 14.5101C60.7708 11.3629 64.8192 9.90288 68.1924 10.8885C68.9445 11.1083 70.8874 12.6975 71.4327 12.4168C71.8428 12.2056 73.311 11.1164 73.311 10.6718C73.311 9.99948 71.848 9.27484 71.2918 8.98719C69.441 8.03003 66.9442 7.4601 64.8114 7.77842ZM84.3933 7.7788C82.2702 8.09571 80.3315 8.56823 78.6173 9.82588C74.0577 13.1713 74.0264 19.9408 78.3355 23.4557C80.7974 25.4638 84.3067 26.0482 87.4929 25.613C88.9347 25.4159 90.3521 24.9497 91.5785 24.2304C100.306 19.1116 94.5561 6.26161 84.3933 7.7788ZM252.6 7.77926C250.563 8.08335 248.62 8.48691 246.965 9.69842C242.107 13.2518 242.107 20.247 246.965 23.8005C249.377 25.5653 252.716 26.0208 255.7 25.613C257.082 25.4242 258.472 24.9667 259.644 24.2766C268.315 19.173 262.893 6.24317 252.6 7.77926ZM99.7436 7.98478V25.5134H103.266V7.98478H99.7436ZM108.478 7.98478V25.5134H112V13.7423L119.553 22.0589L122.621 25.421L125.666 25.5133V7.98475H122.144V19.7559L119.741 17.197L114.45 11.3115L111.437 8.07738L108.478 7.98478ZM130.878 7.98498V25.5136H134.4V7.98498H130.878ZM139.613 7.98498V25.5136H143.135V13.7425L150.546 21.9306L153.732 25.4207L156.659 25.5131V7.9845H153.137V19.7556L145.679 11.439L142.567 8.07691L139.613 7.98498ZM159.477 7.98451V10.6713H165.816V25.5131H169.338V14.6381C169.338 13.8448 168.896 11.415 169.526 10.8424C169.875 10.5255 170.719 10.6719 171.17 10.6719H175.819V7.98502L159.477 7.98451ZM178.495 7.98502V25.5136H193.005V22.8268H184.975L182.204 22.6562L182.017 21.4194V17.9649H191.315V15.2781H182.017V12.0795L182.204 10.8427L184.975 10.6722H192.583V7.98537L178.495 7.98502ZM196.951 7.98537V25.514H200.473V13.7429L203.204 16.6856L208.248 22.3152L211.179 25.4214L214.138 25.5138V7.98519H210.616V19.7563L208.212 17.1974L202.594 10.9282L199.909 8.07782L196.951 7.98537ZM216.815 7.98542V10.6722H223.154V25.514H226.817V10.6722H233.157V7.98542H216.815ZM235.833 7.98542V25.514H239.496V7.98542H235.833ZM267.813 7.98542V25.514H271.335V13.7429L274.207 16.8136L279.251 22.4431L282.042 25.4214L285 25.5138V7.98517H281.478V19.7563L273.597 11.0558L270.857 8.07757L267.813 7.98542ZM5.21196 8.81684C3.64296 9.29626 4.02839 11.4345 5.49371 11.7702C6.64598 12.0342 8.11131 11.8235 9.29743 11.8235H17.0458C18.2542 11.8235 20.1951 12.1568 21.2682 11.5782C22.4384 10.9475 22.2324 9.04706 20.8495 8.7848C19.7584 8.57788 18.4421 8.75281 17.3276 8.75281H10.0019C8.5933 8.75281 6.54768 8.40869 5.21196 8.81684ZM84.8084 10.5724C91.3599 9.74607 95.0657 17.9697 89.8801 21.622C88.7902 22.3895 87.4436 22.8205 86.0763 22.9442C80.196 23.4756 76.5379 17.0293 80.0773 12.8474C81.2311 11.4837 82.9799 10.8031 84.8084 10.5724ZM253.015 10.5728C259.321 9.7775 262.835 17.1623 258.639 21.1599C257.485 22.2589 255.77 22.7969 254.142 22.9442C248.522 23.4521 245.057 17.5535 247.857 13.3589C248.988 11.6636 250.931 10.8356 253.015 10.5728ZM9.85689 16.7459C8.49713 17.1213 8.30893 18.9998 9.57512 19.5927C10.1542 19.8638 10.9173 19.7562 11.5475 19.7562C13.1577 19.7562 15.6865 20.1914 17.1826 19.646C18.53 19.1548 18.6245 17.2235 17.1826 16.7495C16.574 16.5494 15.7095 16.6855 15.0694 16.6855C13.5077 16.6855 11.3512 16.3334 9.85689 16.7459Z" fill="#FBC315"/>
</svg>
