<svg width="30" height="20" viewBox="0 0 30 20" fill="none" xmlns="http://www.w3.org/2000/svg">
<path d="M29.7991 9.28898C28.8395 7.70375 23.5616 -0.250972 14.5952 0.00609254C6.30346 0.206032 1.50536 7.14677 0.200882 9.28898C0.069282 9.50608 0 9.75236 0 10.003C0 10.2537 0.069282 10.5 0.200882 10.7171C1.14551 12.2738 6.1985 20 15.03 20H15.4048C23.6965 19.8001 28.5096 12.8593 29.7991 10.7171C29.9307 10.5 30 10.2537 30 10.003C30 9.75236 29.9307 9.50608 29.7991 9.28898ZM15.3299 17.1437C8.86744 17.2865 4.65411 12.0167 3.33464 10.003C4.83404 7.70375 8.74749 3.00518 14.7451 2.86236C21.1775 2.70527 25.4059 7.98937 26.7403 10.003C25.1959 12.3023 21.3275 17.0009 15.3299 17.1437Z" fill="#FF696A"/>
<path d="M15 5.00457C13.962 5.00457 12.9474 5.29772 12.0844 5.84696C11.2214 6.3962 10.5487 7.17686 10.1515 8.09021C9.75434 9.00356 9.65042 10.0086 9.85291 10.9782C10.0554 11.9478 10.5552 12.8384 11.2892 13.5375C12.0231 14.2365 12.9582 14.7126 13.9762 14.9055C14.9942 15.0983 16.0493 14.9994 17.0083 14.621C17.9672 14.2427 18.7868 13.602 19.3635 12.78C19.9401 11.9581 20.2479 10.9916 20.2479 10.003C20.2479 8.67736 19.695 7.40598 18.7108 6.46859C17.7266 5.53119 16.3918 5.00457 15 5.00457ZM15 12.1452C14.5552 12.1452 14.1203 12.0196 13.7505 11.7842C13.3806 11.5488 13.0923 11.2143 12.9221 10.8228C12.7519 10.4314 12.7073 10.0007 12.7941 9.58512C12.8809 9.16957 13.0951 8.78787 13.4096 8.48828C13.7242 8.18868 14.1249 7.98466 14.5612 7.902C14.9975 7.81934 15.4497 7.86177 15.8607 8.0239C16.2717 8.18604 16.6229 8.46062 16.8701 8.8129C17.1172 9.16518 17.2491 9.57936 17.2491 10.003C17.2491 10.5712 17.0121 11.1161 16.5903 11.5178C16.1686 11.9196 15.5965 12.1452 15 12.1452Z" fill="#FF696A"/>
</svg>
