<svg width="25" height="25" viewBox="0 0 25 25" fill="none" xmlns="http://www.w3.org/2000/svg">
<path d="M16.367 8.58025L16.3789 8.59303L16.3912 8.60539C16.4264 8.64076 16.4502 8.68585 16.4595 8.73485C16.4689 8.78387 16.4634 8.83456 16.4437 8.88039L16.4405 8.88769L16.4375 8.89504L14.25 14.22L14.25 14.22L14.2486 14.2236C14.236 14.2545 14.2174 14.2826 14.1937 14.3062C14.1703 14.3297 14.1424 14.3483 14.1117 14.3608C14.1115 14.3609 14.1113 14.361 14.1111 14.3611L8.85727 16.4826C8.85661 16.4829 8.85594 16.4831 8.85527 16.4834C8.84267 16.4882 8.82972 16.492 8.81655 16.4948C8.80073 16.4892 8.78546 16.4821 8.771 16.4734C8.74084 16.4553 8.71484 16.431 8.6947 16.4022L8.51051 16.1386C8.51208 16.1197 8.51582 16.1009 8.52169 16.0826L10.7 10.78L10.7015 10.7765C10.714 10.7455 10.7327 10.7174 10.7563 10.6938L10.0492 9.98669L10.7563 10.6938C10.7797 10.6703 10.8076 10.6518 10.8383 10.6392C10.8385 10.6391 10.8388 10.639 10.839 10.639L16.0943 8.51686C16.1405 8.49916 16.1909 8.49555 16.2392 8.50652C16.2882 8.51767 16.3328 8.54337 16.367 8.58025ZM10.0741 13.6347L9.18157 15.8221L11.3733 14.9402L13.4858 14.0902L13.8785 13.9322L14.0384 13.5403L14.9259 11.3653L15.8185 9.17793L13.6267 10.0598L11.5142 10.9098L11.1215 11.0678L10.9616 11.4597L10.0741 13.6347ZM6.11095 2.9381C8.00211 1.67446 10.2255 1 12.5 1C14.0102 1 15.5056 1.29746 16.9009 1.87539C18.2961 2.45331 19.5639 3.3004 20.6317 4.36827C21.6996 5.43614 22.5467 6.7039 23.1246 8.09914C23.7025 9.49438 24 10.9898 24 12.5C24 14.7745 23.3255 16.9979 22.0619 18.8891C20.7983 20.7802 19.0022 22.2542 16.9009 23.1246C14.7995 23.995 12.4872 24.2228 10.2565 23.779C8.02568 23.3353 5.97658 22.24 4.36828 20.6317C2.75997 19.0234 1.6647 16.9743 1.22097 14.7435C0.777245 12.5128 1.00498 10.2005 1.87539 8.09914C2.7458 5.99779 4.21978 4.20174 6.11095 2.9381ZM6.38873 21.6462C8.19767 22.8549 10.3244 23.5 12.5 23.5C15.4174 23.5 18.2153 22.3411 20.2782 20.2782C22.3411 18.2153 23.5 15.4174 23.5 12.5C23.5 10.3244 22.8549 8.19767 21.6462 6.38873C20.4375 4.57979 18.7195 3.16989 16.7095 2.33732C14.6995 1.50476 12.4878 1.28692 10.354 1.71136C8.22022 2.1358 6.26021 3.18345 4.72183 4.72182C3.18345 6.2602 2.1358 8.22021 1.71137 10.354C1.28693 12.4878 1.50477 14.6995 2.33733 16.7095C3.16989 18.7195 4.57979 20.4375 6.38873 21.6462Z" stroke="#226AF3" stroke-width="2"/>
</svg>
