<svg width="25" height="30" viewBox="0 0 25 30" fill="none" xmlns="http://www.w3.org/2000/svg">
<path d="M10.4166 15.6322L7.71873 12.8572L6.24998 14.3679L10.4166 18.6536L18.75 10.0822L17.2812 8.57144L10.4166 15.6322Z" fill="#88ECA6"/>
<path d="M12.5 30L6.06688 26.4719C4.23278 25.4683 2.699 23.97 1.63016 22.1377C0.561325 20.3054 -0.00222257 18.2083 6.58762e-06 16.0714V2.14286C0.00058565 1.57472 0.220265 1.03002 0.61084 0.628286C1.00142 0.226552 1.53098 0.000595608 2.08334 0H22.9167C23.469 0.000595608 23.9986 0.226552 24.3892 0.628286C24.7797 1.03002 24.9994 1.57472 25 2.14286V16.0714C25.0022 18.2083 24.4387 20.3054 23.3698 22.1377C22.301 23.97 20.7672 25.4683 18.9331 26.4719L12.5 30ZM2.08334 2.14286V16.0714C2.08154 17.8198 2.54267 19.5357 3.41724 21.0349C4.29181 22.5341 5.5468 23.76 7.0475 24.581L12.5 27.5714L17.9525 24.581C19.4532 23.76 20.7082 22.5341 21.5828 21.0349C22.4573 19.5357 22.9185 17.8198 22.9167 16.0714V2.14286H2.08334Z" fill="#88ECA6"/>
</svg>
