<svg width="24" height="25" viewBox="0 0 24 25" fill="none" xmlns="http://www.w3.org/2000/svg">
<path d="M23.6057 22.5272L19.0739 18.0087C20.536 16.1459 21.3294 13.8456 21.3265 11.4774C21.3265 9.36846 20.7011 7.30683 19.5294 5.55327C18.3577 3.79971 16.6923 2.43298 14.7439 1.6259C12.7954 0.818829 10.6514 0.607662 8.58294 1.0191C6.51448 1.43055 4.61447 2.44612 3.12319 3.9374C1.63191 5.42868 0.616339 7.32869 0.204896 9.39715C-0.206547 11.4656 0.00462018 13.6096 0.811695 15.5581C1.61877 17.5065 2.9855 19.1719 4.73906 20.3436C6.49262 21.5153 8.55425 22.1407 10.6632 22.1407C13.0313 22.1436 15.3317 21.3502 17.1945 19.8881L21.713 24.4199C21.8369 24.5449 21.9843 24.644 22.1468 24.7117C22.3092 24.7794 22.4834 24.8142 22.6594 24.8142C22.8353 24.8142 23.0095 24.7794 23.172 24.7117C23.3344 24.644 23.4818 24.5449 23.6057 24.4199C23.7307 24.296 23.8298 24.1486 23.8975 23.9862C23.9652 23.8238 24 23.6495 24 23.4736C24 23.2976 23.9652 23.1234 23.8975 22.961C23.8298 22.7985 23.7307 22.6511 23.6057 22.5272ZM2.66581 11.4774C2.66581 9.8957 3.13485 8.34948 4.01362 7.03431C4.89239 5.71914 6.14142 4.69409 7.60275 4.08879C9.06409 3.48348 10.6721 3.32511 12.2235 3.63369C13.7748 3.94227 15.1998 4.70395 16.3183 5.82241C17.4367 6.94087 18.1984 8.36588 18.507 9.91722C18.8156 11.4686 18.6572 13.0766 18.0519 14.5379C17.4466 15.9993 16.4215 17.2483 15.1064 18.1271C13.7912 19.0058 12.245 19.4749 10.6632 19.4749C8.54219 19.4749 6.50801 18.6323 5.0082 17.1325C3.5084 15.6327 2.66581 13.5985 2.66581 11.4774Z" fill="white"/>
</svg>
