<svg width="25" height="25" viewBox="0 0 25 25" fill="none" xmlns="http://www.w3.org/2000/svg">
<path d="M2.44095 12.5C2.44095 12.8237 2.31236 13.1341 2.08348 13.363C1.8546 13.5919 1.54417 13.7205 1.22048 13.7205C0.896794 13.7205 0.586365 13.5919 0.357483 13.363C0.128601 13.1341 1.72338e-05 12.8237 1.72338e-05 12.5C-0.00385017 10.2002 0.643263 7.94628 1.86654 5.99881C3.08982 4.05133 4.83931 2.48984 6.91273 1.49487C8.98616 0.499905 11.2989 0.112088 13.5834 0.376258C15.868 0.640429 18.0312 1.5458 19.8228 2.9877V1.22046C19.8228 0.896777 19.9514 0.586347 20.1803 0.357466C20.4091 0.128584 20.7196 0 21.0433 0C21.367 0 21.6774 0.128584 21.9063 0.357466C22.1351 0.586347 22.2637 0.896777 22.2637 1.22046V6.10232C22.2637 6.42601 22.1351 6.73644 21.9063 6.96532C21.6774 7.1942 21.367 7.32279 21.0433 7.32279H16.1614C15.8377 7.32279 15.5273 7.1942 15.2984 6.96532C15.0695 6.73644 14.9409 6.42601 14.9409 6.10232C14.9409 5.77864 15.0695 5.46821 15.2984 5.23933C15.5273 5.01044 15.8377 4.88186 16.1614 4.88186H18.2887C16.8547 3.73084 15.1244 3.00894 13.2976 2.79952C11.4708 2.59009 9.62206 2.9017 7.96483 3.69834C6.30761 4.49499 4.90953 5.74417 3.93208 7.30162C2.95463 8.85906 2.43769 10.6612 2.44095 12.5ZM23.1888 11.2795C22.8652 11.2795 22.5547 11.4081 22.3258 11.637C22.097 11.8659 21.9684 12.1763 21.9684 12.5C21.9716 14.3388 21.4547 16.1409 20.4772 17.6984C19.4998 19.2558 18.1017 20.505 16.4445 21.3017C14.7873 22.0983 12.9385 22.4099 11.1117 22.2005C9.28489 21.9911 7.5546 21.2692 6.12065 20.1181H8.2467C8.57038 20.1181 8.88081 19.9896 9.1097 19.7607C9.33858 19.5318 9.46716 19.2214 9.46716 18.8977C9.46716 18.574 9.33858 18.2636 9.1097 18.0347C8.88081 17.8058 8.57038 17.6772 8.2467 17.6772H3.36484C3.04115 17.6772 2.73072 17.8058 2.50184 18.0347C2.27296 18.2636 2.14437 18.574 2.14437 18.8977V23.7795C2.14437 24.1032 2.27296 24.4137 2.50184 24.6425C2.73072 24.8714 3.04115 25 3.36484 25C3.68853 25 3.99896 24.8714 4.22784 24.6425C4.45672 24.4137 4.5853 24.1032 4.5853 23.7795V22.0123C6.37708 23.4541 8.54029 24.3593 10.8249 24.6234C13.1095 24.8875 15.4222 24.4997 17.4956 23.5048C19.5691 22.5099 21.3187 20.9485 22.5421 19.0011C23.7655 17.0537 24.4129 14.7998 24.4093 12.5C24.4093 12.1763 24.2807 11.8659 24.0518 11.637C23.823 11.4081 23.5125 11.2795 23.1888 11.2795Z" fill="#FF696A"/>
</svg>
