<svg width="25" height="25" viewBox="0 0 25 25" fill="none" xmlns="http://www.w3.org/2000/svg">
<path d="M12.4166 11.7596C14.6667 11.7596 16.4167 9.77806 16.4167 7.34615C16.4167 4.91424 14.5833 3.02276 12.3333 3.02276C10.0833 3.02276 8.33331 5.00431 8.33331 7.34615C8.33331 9.77806 10.1666 11.7596 12.4166 11.7596ZM12.3333 4.82417C12.4166 4.82417 12.4166 4.82417 12.3333 4.82417C13.6667 4.82417 14.75 5.99509 14.75 7.43622C14.75 8.87735 13.6667 9.9582 12.3333 9.9582C11 9.9582 9.99998 8.78728 9.99998 7.43622C9.99998 5.99509 11.0833 4.82417 12.3333 4.82417Z" fill="#6687FA"/>
<path d="M24.75 11.2192C23.1667 9.68802 21.0833 8.87738 18.9167 8.96745C18.6667 8.96745 18.5 8.96745 18.25 8.96745C18.0833 9.68802 17.8333 10.3185 17.5 10.8589C18 10.7689 18.4167 10.7689 18.9167 10.7689C20.5 10.6788 22.0833 11.2192 23.3333 12.21V18.6951H25V11.4894L24.75 11.2192Z" fill="#6687FA"/>
<path d="M17 3.20296C17.4167 2.12211 18.5833 1.58169 19.6667 2.03204C20.6667 2.4824 21.1667 3.74339 20.75 4.9143C20.4167 5.72494 19.6667 6.26536 18.9167 6.26536C18.75 6.26536 18.5 6.26536 18.3333 6.17529C18.4167 6.62565 18.4167 7.076 18.4167 7.43628V7.97671C18.5833 7.97671 18.75 8.06678 18.9167 8.06678C21 8.06678 22.6667 6.26536 22.6667 4.10367C22.6667 1.8519 21 0.050488 19 0.050488C17.6667 0.050488 16.5 0.771053 15.8333 2.03204C16.25 2.30225 16.6667 2.66254 17 3.20296Z" fill="#6687FA"/>
<path d="M7.50001 10.949C7.16668 10.4086 6.91668 9.77807 6.75001 9.05751C6.50001 9.05751 6.33334 9.05751 6.08334 9.05751C3.91667 8.96744 1.83334 9.77807 0.25 11.2192L0 11.4894V18.6951H1.66667V12.21C3 11.2192 4.50001 10.6788 6.08334 10.7689C6.58334 10.7689 7.08334 10.8589 7.50001 10.949Z" fill="#6687FA"/>
<path d="M6.08332 7.97668C6.24998 7.97668 6.41665 7.97668 6.58332 7.88661C6.58332 7.70646 6.58332 7.52632 6.58332 7.34618C6.58332 6.89583 6.58332 6.44547 6.66665 6.08519C6.49998 6.17526 6.24998 6.17526 6.08332 6.17526C4.99998 6.17526 4.08331 5.18448 4.08331 4.01357C4.08331 2.84265 4.99998 1.85187 6.08332 1.85187C6.91665 1.85187 7.66665 2.39229 7.99999 3.20293C8.33332 2.75258 8.83332 2.30222 9.24999 1.94194C8.16665 0.0504568 5.91665 -0.580038 4.16665 0.590881C2.41664 1.7618 1.83331 4.19371 2.91664 6.08519C3.58331 7.25611 4.74998 7.97668 6.08332 7.97668Z" fill="#6687FA"/>
<path d="M19.25 16.6234L19.0833 16.3532C17.4167 14.3717 15.0833 13.2007 12.5833 13.2908C10.0833 13.2007 7.66667 14.3717 6 16.3532L5.83333 16.6234V23.4688C5.83333 24.2794 6.41666 25 7.25 25H17.9167C18.6667 25 19.3334 24.2794 19.3334 23.4688V16.6234H19.25ZM17.5833 23.1986H7.5V17.2539C8.83333 15.8128 10.6667 15.0922 12.5833 15.0922C14.4167 15.0022 16.25 15.8128 17.5833 17.2539V23.1986Z" fill="#6687FA"/>
</svg>
