<svg width="16" height="17" viewBox="0 0 16 17" fill="none" xmlns="http://www.w3.org/2000/svg">
<path d="M6.85796 1.0625L6.85796 13.6638L1.87555 9.80687C1.75999 9.71758 1.62666 9.65031 1.48315 9.60893C1.33963 9.56754 1.18876 9.55284 1.03914 9.56567C0.736963 9.59157 0.458233 9.72802 0.264264 9.945C0.0702944 10.162 -0.0230255 10.4417 0.00483513 10.7227C0.0326958 11.0036 0.179454 11.2628 0.412823 11.4431L7.26935 16.7556C7.32389 16.7914 7.38118 16.8233 7.44076 16.8512C7.4979 16.8513 7.53219 16.9044 7.58932 16.9256C7.72035 16.9738 7.85983 16.999 8.00071 17C8.1416 16.999 8.28108 16.9738 8.41211 16.9256C8.46924 16.9256 8.50353 16.8725 8.56066 16.8512C8.62025 16.8233 8.67754 16.7914 8.73208 16.7556L15.5886 11.4431C15.7176 11.3432 15.8213 11.2181 15.8924 11.0767C15.9635 10.9353 16.0003 10.7811 16 10.625C16.0005 10.3767 15.9075 10.1362 15.7372 9.945C15.6412 9.83741 15.5234 9.74848 15.3905 9.68329C15.2575 9.61811 15.112 9.57795 14.9623 9.56512C14.8127 9.55229 14.6617 9.56704 14.5182 9.60852C14.3747 9.65001 14.2414 9.71741 14.1259 9.80687L9.14347 13.6638L9.14347 1.0625C9.14347 0.780707 9.02307 0.510457 8.80876 0.311199C8.59446 0.111942 8.30379 0 8.00071 0C7.69764 0 7.40697 0.111942 7.19267 0.311199C6.97836 0.510457 6.85796 0.780707 6.85796 1.0625Z" fill="#FF0000"/>
</svg>
